# xmcd
#
# Track frame offsets: 
#        150
#        20168
#        33682
#        58934
#        72085
#        108110
#        127660
#        148205
#        165462
#        184049
#        205525
#        224854
#        248595
#
# Disc length: 3639 seconds
#
# Revision: 0
# Processed by: cddbd v1.5.2PL0 Copyright (c) Steve Scherf et al.
# Submitted via: ExactAudioCopy v0.95a4
#
DISCID=be0e350d
DTITLE=Richie Kotzen - The Essential [CD1]
DYEAR=2014
DGENRE=Blues
TTITLE0=War Paint
TTITLE1=Walk With Me
TTITLE2=Love Is Blind
TTITLE3=Go Faster
TTITLE4=Fooled Again
TTITLE5=OMG (What's Your Name?)
TTITLE6=Help Me
TTITLE7=Bad Situation
TTITLE8=Lie To Me
TTITLE9=Fear
TTITLE10=You Can't Save Me
TTITLE11=Doing What The Devil Says To Do
TTITLE12=Remember (Reprise)
EXTD=
EXTT0=
EXTT1=
EXTT2=
EXTT3=
EXTT4=
EXTT5=
EXTT6=
EXTT7=
EXTT8=
EXTT9=
EXTT10=
EXTT11=
EXTT12=
PLAYORDER=
